<?xml version="1.0" encoding="UTF-8" standalone="no"?>
<!-- Created with Inkscape (http://www.inkscape.org/) -->

<svg
   xmlns:dc="http://purl.org/dc/elements/1.1/"
   xmlns:cc="http://creativecommons.org/ns#"
   xmlns:rdf="http://www.w3.org/1999/02/22-rdf-syntax-ns#"
   xmlns:svg="http://www.w3.org/2000/svg"
   xmlns="http://www.w3.org/2000/svg"
   xmlns:sodipodi="http://sodipodi.sourceforge.net/DTD/sodipodi-0.dtd"
   xmlns:inkscape="http://www.inkscape.org/namespaces/inkscape"
   version="1.1"
   id="svg2"
   xml:space="preserve"
   width="368.50668"
   height="324.51999"
   viewBox="0 0 368.50668 324.51999"
   sodipodi:docname="logo.svg"
   inkscape:version="0.92.3 (2405546, 2018-03-11)"><metadata
     id="metadata8"><rdf:RDF><cc:Work
         rdf:about=""><dc:format>image/svg+xml</dc:format><dc:type
           rdf:resource="http://purl.org/dc/dcmitype/StillImage" /><dc:title></dc:title></cc:Work></rdf:RDF></metadata><defs
     id="defs6" /><sodipodi:namedview
     pagecolor="#ffffff"
     bordercolor="#666666"
     borderopacity="1"
     objecttolerance="10"
     gridtolerance="10"
     guidetolerance="10"
     inkscape:pageopacity="0"
     inkscape:pageshadow="2"
     inkscape:window-width="1853"
     inkscape:window-height="1016"
     id="namedview4"
     showgrid="false"
     inkscape:zoom="1.4544559"
     inkscape:cx="-594.72835"
     inkscape:cy="236.96413"
     inkscape:window-x="1147"
     inkscape:window-y="839"
     inkscape:window-maximized="1"
     inkscape:current-layer="g10" /><g
     id="g10"
     inkscape:groupmode="layer"
     inkscape:label="ink_ext_XXXXXX"
     transform="matrix(1.3333333,0,0,-1.3333333,0,324.52)"><path
       style="fill:#ffffff;fill-opacity:1;fill-rule:nonzero;stroke:none;stroke-width:0.13333333"
       d="M -503.52148 -93.341797 C -510.28165 -93.245464 -516.97671 -89.69275 -520.85938 -82.96875 L -685.6582 200.8125 C -693.82226 215.0901 -682.68679 231.17578 -667.1582 231.17578 L -339.48242 231.17578 C -323.03309 231.10651 -315.1513 214.25327 -322.91797 200.80273 L -485.79688 -82.972656 C -489.93754 -90.076656 -496.76132 -93.43813 -503.52148 -93.341797 z M -503.46484 -52.378906 L -356.92383 201.4375 L -650.00391 201.4375 L -503.46484 -52.378906 z "
       transform="matrix(0.75000002,0,0,-0.75000002,0,243.39001)"
       id="path14"
       inkscape:export-filename="/home/niclas/11test.png"
       inkscape:export-xdpi="266.76666"
       inkscape:export-ydpi="266.76666" /><path
       inkscape:connector-curvature="0"
       id="path18"
       style="fill:#ffffff;fill-opacity:1;fill-rule:nonzero;stroke:none;stroke-width:0.1"
       d="m -377.89215,245.94989 c 8.659,0 15.942,-8.777 15.205,-18.27701 l -6.142,-72.281 c -1.266,-12.9738 -17.383,-12.907 -18.674,0 l -6.025,71.882 c -0.919,10.45901 6.624,18.67601 15.636,18.67601"
       inkscape:export-filename="/home/niclas/11test.png"
       inkscape:export-xdpi="266.76666"
       inkscape:export-ydpi="266.76666" /><path
       inkscape:connector-curvature="0"
       id="path20"
       style="fill:#ffffff;fill-opacity:1;fill-rule:nonzero;stroke:none;stroke-width:0.1"
       d="m -378.12415,102.31378 c 8.574,0 15.525,7.8632 15.525,17.56131 0,9.69059 -6.951,17.55389 -15.525,17.55389 -8.567,0 -15.517,-7.8633 -15.517,-17.55389 0,-9.69811 6.95,-17.56131 15.517,-17.56131"
       inkscape:export-filename="/home/niclas/11test.png"
       inkscape:export-xdpi="266.76666"
       inkscape:export-ydpi="266.76666" /></g></svg>